<svg width="26" height="26" viewBox="0 0 26 26" fill="none" xmlns="http://www.w3.org/2000/svg">
<path d="M26 2.0461C26 0.916068 25.0839 -2.35034e-06 23.9539 -2.86776e-06L5.53899 -1.22926e-06C4.40896 -1.91915e-06 3.49289 0.916069 3.49289 2.0461C3.49289 3.17613 4.40896 4.0922 5.53899 4.0922L21.9078 4.0922L21.9078 20.461C21.9078 21.591 22.8239 22.5071 23.9539 22.5071C25.0839 22.5071 26 21.591 26 20.461L26 2.0461ZM1.44678 24.5532L2.89359 26L25.4007 3.49291L23.9539 2.0461L22.5071 0.599287L-2.96356e-05 23.1064L1.44678 24.5532Z" fill="black"/>
</svg>
