<svg width="37" height="38" viewBox="0 0 37 38" fill="none" xmlns="http://www.w3.org/2000/svg">
<path d="M0 2.72175C0 1.21837 1.21637 0 2.71719 0H34.2828C35.7836 0 37 1.21837 37 2.72175V35.2783C37 36.7816 35.7836 38 34.2828 38H2.71719C1.21637 38 0 36.7816 0 35.2783V2.72175ZM11.4307 31.8108V14.6514H5.87838V31.8108H11.4307ZM8.65569 12.3073C10.5913 12.3073 11.7961 10.9915 11.7961 9.34325C11.7614 7.65938 10.5936 6.37925 8.69269 6.37925C6.79181 6.37925 5.55 7.66175 5.55 9.34325C5.55 10.9915 6.75481 12.3073 8.61869 12.3073H8.65569ZM20.0054 31.8108V22.2276C20.0054 21.7146 20.0424 21.2016 20.1904 20.8359C20.5905 19.8123 21.5039 18.7506 23.0394 18.7506C25.049 18.7506 25.8514 20.3229 25.8514 22.6314V31.8108H31.4037V21.9688C31.4037 16.6962 28.6658 14.2453 25.012 14.2453C22.0659 14.2453 20.7454 15.9078 20.0054 17.0786V17.138H19.9684L20.0054 17.0786V14.6514H14.4554C14.5248 16.2616 14.4554 31.8108 14.4554 31.8108H20.0054Z" fill="#FFAD65"/>
</svg>
