<svg width="37" height="38" viewBox="0 0 37 38" fill="none" xmlns="http://www.w3.org/2000/svg">
<path d="M18.5 0C13.4796 0 12.8483 0.02375 10.8757 0.114C8.90312 0.209 7.55956 0.52725 6.3825 0.9975C5.14726 1.47327 4.0287 2.22157 3.10569 3.18963C2.16311 4.13759 1.4345 5.28638 0.97125 6.555C0.513375 7.7615 0.201188 9.14375 0.111 11.1625C0.023125 13.1931 0 13.8391 0 19.0024C0 24.1609 0.023125 24.8069 0.111 26.8328C0.2035 28.8563 0.513375 30.2361 0.97125 31.445C1.44531 32.6942 2.07663 33.7535 3.10569 34.8104C4.13244 35.8672 5.16381 36.518 6.38019 37.0025C7.55956 37.4728 8.90081 37.7934 10.8711 37.886C12.8459 37.9762 13.4749 38 18.5 38C23.5251 38 24.1518 37.9762 26.1266 37.886C28.0946 37.791 29.4428 37.4728 30.6198 37.0025C31.8542 36.5264 32.972 35.7781 33.8943 34.8104C34.9234 33.7535 35.5547 32.6942 36.0288 31.445C36.4843 30.2361 36.7965 28.8563 36.889 26.8328C36.9769 24.8069 37 24.1609 37 19C37 13.8391 36.9769 13.1931 36.889 11.1649C36.7965 9.14375 36.4843 7.7615 36.0288 6.555C35.5655 5.28638 34.8369 4.13759 33.8943 3.18963C32.9713 2.22157 31.8527 1.47327 30.6175 0.9975C29.4381 0.52725 28.0922 0.206625 26.1243 0.114C24.1494 0.02375 23.5228 0 18.4954 0H18.5ZM16.8419 3.42475H18.5023C23.4418 3.42475 24.0269 3.44138 25.9763 3.534C27.7801 3.61713 28.7606 3.92825 29.4127 4.18713C30.2752 4.5315 30.8927 4.94475 31.5402 5.60975C32.1877 6.27475 32.5877 6.9065 32.9231 7.79475C33.1774 8.46212 33.4781 9.46913 33.559 11.3216C33.6492 13.3238 33.6677 13.9246 33.6677 18.9953C33.6677 24.0659 33.6492 24.6691 33.559 26.6712C33.4781 28.5237 33.1751 29.5284 32.9231 30.1981C32.6244 31.022 32.1512 31.7675 31.5379 32.3807C30.8904 33.0457 30.2753 33.4566 29.4104 33.801C28.7629 34.0623 27.7824 34.371 25.9763 34.4565C24.0269 34.5467 23.4418 34.5681 18.5023 34.5681C13.5628 34.5681 12.9754 34.5467 11.026 34.4565C9.22225 34.371 8.24406 34.0623 7.59194 33.801C6.78911 33.4952 6.06245 33.0101 5.46444 32.3807C4.84995 31.7671 4.37601 31.0207 4.07694 30.1957C3.82488 29.5284 3.52194 28.5214 3.441 26.6689C3.35313 24.6667 3.33463 24.0659 3.33463 18.9905C3.33463 13.9151 3.35313 13.319 3.441 11.3169C3.52425 9.46437 3.82488 8.45738 4.07925 7.78763C4.41456 6.90175 4.81694 6.26762 5.46444 5.60262C6.11194 4.93762 6.72706 4.52675 7.59194 4.18237C8.24406 3.92113 9.22225 3.61238 11.026 3.52688C12.7326 3.44613 13.394 3.42238 16.8419 3.42V3.42475ZM28.3767 6.57875C28.0852 6.57875 27.7965 6.63772 27.5271 6.75231C27.2578 6.86689 27.0131 7.03483 26.8069 7.24655C26.6008 7.45826 26.4372 7.70961 26.3257 7.98623C26.2141 8.26285 26.1567 8.55934 26.1567 8.85875C26.1567 9.15816 26.2141 9.45465 26.3257 9.73127C26.4372 10.0079 26.6008 10.2592 26.8069 10.471C27.0131 10.6827 27.2578 10.8506 27.5271 10.9652C27.7965 11.0798 28.0852 11.1388 28.3767 11.1388C28.9655 11.1388 29.5301 10.8985 29.9465 10.471C30.3628 10.0434 30.5967 9.46344 30.5967 8.85875C30.5967 8.25406 30.3628 7.67413 29.9465 7.24655C29.5301 6.81896 28.9655 6.57875 28.3767 6.57875ZM18.5023 9.2435C17.2422 9.22331 15.9907 9.46078 14.8208 9.94209C13.6508 10.4234 12.5858 11.1389 11.6877 12.047C10.7896 12.9551 10.0764 14.0376 9.58957 15.2315C9.10274 16.4254 8.85202 17.7068 8.85202 19.0012C8.85202 20.2956 9.10274 21.577 9.58957 22.7709C10.0764 23.9648 10.7896 25.0473 11.6877 25.9554C12.5858 26.8635 13.6508 27.579 14.8208 28.0603C15.9907 28.5416 17.2422 28.7791 18.5023 28.7589C20.9964 28.7189 23.3752 27.6733 25.1253 25.8477C26.8753 24.0221 27.8561 21.563 27.8561 19.0012C27.8561 16.4393 26.8753 13.9802 25.1253 12.1547C23.3752 10.3291 20.9964 9.28346 18.5023 9.2435ZM18.5023 12.6659C19.3122 12.6659 20.1142 12.8297 20.8625 13.148C21.6108 13.4664 22.2907 13.9329 22.8633 14.5211C23.4361 15.1093 23.8903 15.8075 24.2003 16.576C24.5102 17.3445 24.6698 18.1682 24.6698 19C24.6698 19.8318 24.5102 20.6555 24.2003 21.424C23.8903 22.1925 23.4361 22.8907 22.8633 23.4789C22.2907 24.0671 21.6108 24.5336 20.8625 24.852C20.1142 25.1703 19.3122 25.3341 18.5023 25.3341C16.8666 25.3341 15.2979 24.6668 14.1413 23.4789C12.9847 22.291 12.3349 20.6799 12.3349 19C12.3349 17.3201 12.9847 15.709 14.1413 14.5211C15.2979 13.3332 16.8666 12.6659 18.5023 12.6659Z" fill="#FFAD65"/>
</svg>
