<svg width="23" height="23" viewBox="0 0 23 23" fill="none" xmlns="http://www.w3.org/2000/svg">
<path d="M11.5 0.5C11.5629 0.5 11.6533 0.532306 11.7148 0.662109L14.8545 7.29688L14.9678 7.53711L15.2314 7.57715L22.2715 8.64453H22.2725C22.3532 8.65664 22.4427 8.72227 22.4834 8.86816C22.5238 9.01359 22.4898 9.16095 22.3965 9.25586H22.3955L17.333 14.4014L17.1543 14.583L17.1963 14.834L18.3887 22.0859C18.4159 22.251 18.3525 22.3784 18.2734 22.4453C18.1996 22.5078 18.125 22.5148 18.0498 22.4736H18.0488L11.7383 19.0146L11.498 18.8838L11.2578 19.0146L4.9502 22.4736C4.87497 22.5148 4.80044 22.5078 4.72656 22.4453C4.64765 22.3784 4.58411 22.2508 4.61133 22.0859L5.80469 14.834L5.8457 14.583L5.66699 14.4014L0.602539 9.25586C0.510004 9.16109 0.47597 9.01376 0.516602 8.86816C0.557395 8.7221 0.646849 8.6567 0.727539 8.64453H0.728516L7.76953 7.57715L8.03223 7.53711L8.14648 7.29688L11.2861 0.662109C11.3476 0.532629 11.4371 0.500065 11.5 0.5Z" stroke="#FFAD65"/>
</svg>
